<svg width="18" height="19" viewBox="0 0 18 19" fill="none" xmlns="http://www.w3.org/2000/svg">
<path fill-rule="evenodd" clip-rule="evenodd" d="M2 16.5H7.5C7.77614 16.5 8 16.7239 8 17V18C8 18.2761 7.77614 18.5 7.5 18.5H2C0.89543 18.5 0 17.6046 0 16.5V2.5C0 1.39543 0.89543 0.5 2 0.5H7.5C7.77614 0.5 8 0.723858 8 1V2C8 2.27614 7.77614 2.5 7.5 2.5H2V16.5ZM12.64 3.65L17.78 8.78C17.9189 8.92172 17.9977 9.11159 18 9.31V9.69C17.9998 9.88885 17.9207 10.0795 17.78 10.22L12.64 15.35C12.5461 15.4447 12.4183 15.4979 12.285 15.4979C12.1517 15.4979 12.0239 15.4447 11.93 15.35L11.22 14.65C11.1253 14.5561 11.0721 14.4283 11.0721 14.295C11.0721 14.1617 11.1253 14.0339 11.22 13.94L14.67 10.5H4.5C4.22386 10.5 4 10.2761 4 10V9C4 8.72386 4.22386 8.5 4.5 8.5H14.67L11.22 5.06C11.1259 4.96784 11.0729 4.84169 11.0729 4.71C11.0729 4.57831 11.1259 4.45216 11.22 4.36L11.93 3.65C12.0239 3.55534 12.1517 3.5021 12.285 3.5021C12.4183 3.5021 12.5461 3.55534 12.64 3.65Z" fill="#EB5757"/>
</svg>
